<mxfile host="app.diagrams.net" agent="Mozilla/5.0 (Windows NT 10.0; Win64; x64) AppleWebKit/537.36 (KHTML, like Gecko) Chrome/141.0.0.0 Safari/537.36" version="28.2.8">
  <diagram name="Page-1" id="-myDeZirQ_0MTxehE8Bq">
    <mxGraphModel dx="2977" dy="2740" grid="1" gridSize="10" guides="1" tooltips="1" connect="1" arrows="1" fold="1" page="1" pageScale="1" pageWidth="850" pageHeight="1100" math="0" shadow="0">
      <root>
        <mxCell id="0" />
        <mxCell id="1" parent="0" />
        <mxCell id="ZZzzd-XF2jwjXJ92meH7-1" value="" style="edgeStyle=orthogonalEdgeStyle;rounded=0;orthogonalLoop=1;jettySize=auto;html=1;endArrow=none;endFill=0;exitX=0.75;exitY=0;exitDx=0;exitDy=0;entryX=0.5;entryY=1;entryDx=0;entryDy=0;" parent="1" source="ZZzzd-XF2jwjXJ92meH7-4" target="JkcQL4pgoWUEzBNEXGuM-16" edge="1">
          <mxGeometry relative="1" as="geometry">
            <mxPoint x="990" y="460" as="targetPoint" />
          </mxGeometry>
        </mxCell>
        <mxCell id="ZZzzd-XF2jwjXJ92meH7-2" style="edgeStyle=orthogonalEdgeStyle;rounded=0;orthogonalLoop=1;jettySize=auto;html=1;exitX=0.25;exitY=0;exitDx=0;exitDy=0;entryX=0.5;entryY=1;entryDx=0;entryDy=0;endArrow=none;endFill=0;" parent="1" source="ZZzzd-XF2jwjXJ92meH7-4" target="ZZzzd-XF2jwjXJ92meH7-34" edge="1">
          <mxGeometry relative="1" as="geometry">
            <mxPoint x="330" y="460" as="targetPoint" />
          </mxGeometry>
        </mxCell>
        <mxCell id="ZZzzd-XF2jwjXJ92meH7-3" value="" style="edgeStyle=orthogonalEdgeStyle;rounded=0;orthogonalLoop=1;jettySize=auto;html=1;endArrow=none;endFill=0;" parent="1" source="ZZzzd-XF2jwjXJ92meH7-4" target="ZZzzd-XF2jwjXJ92meH7-36" edge="1">
          <mxGeometry relative="1" as="geometry" />
        </mxCell>
        <mxCell id="ZZzzd-XF2jwjXJ92meH7-4" value="User" style="rounded=1;arcSize=10;whiteSpace=wrap;html=1;align=center;" parent="1" vertex="1">
          <mxGeometry x="400" y="610" width="100" height="40" as="geometry" />
        </mxCell>
        <mxCell id="ZZzzd-XF2jwjXJ92meH7-5" style="edgeStyle=orthogonalEdgeStyle;rounded=0;orthogonalLoop=1;jettySize=auto;html=1;entryX=0.5;entryY=1;entryDx=0;entryDy=0;endArrow=none;endFill=0;" parent="1" source="ZZzzd-XF2jwjXJ92meH7-6" target="ZZzzd-XF2jwjXJ92meH7-4" edge="1">
          <mxGeometry relative="1" as="geometry" />
        </mxCell>
        <mxCell id="ZZzzd-XF2jwjXJ92meH7-6" value="user_id" style="ellipse;whiteSpace=wrap;html=1;align=center;fontStyle=4;" parent="1" vertex="1">
          <mxGeometry x="400" y="780" width="100" height="40" as="geometry" />
        </mxCell>
        <mxCell id="ZZzzd-XF2jwjXJ92meH7-7" style="edgeStyle=orthogonalEdgeStyle;rounded=0;orthogonalLoop=1;jettySize=auto;html=1;entryX=0.75;entryY=1;entryDx=0;entryDy=0;endArrow=none;endFill=0;exitX=0;exitY=0.5;exitDx=0;exitDy=0;" parent="1" source="ZZzzd-XF2jwjXJ92meH7-30" target="ZZzzd-XF2jwjXJ92meH7-4" edge="1">
          <mxGeometry relative="1" as="geometry">
            <mxPoint x="530.0002162634435" y="770.0588235294117" as="sourcePoint" />
          </mxGeometry>
        </mxCell>
        <mxCell id="ZZzzd-XF2jwjXJ92meH7-8" style="edgeStyle=orthogonalEdgeStyle;rounded=0;orthogonalLoop=1;jettySize=auto;html=1;exitX=1;exitY=0.5;exitDx=0;exitDy=0;entryX=0;entryY=0.25;entryDx=0;entryDy=0;endArrow=none;endFill=0;" parent="1" source="ZZzzd-XF2jwjXJ92meH7-9" target="ZZzzd-XF2jwjXJ92meH7-4" edge="1">
          <mxGeometry relative="1" as="geometry" />
        </mxCell>
        <mxCell id="ZZzzd-XF2jwjXJ92meH7-9" value="months_subscribed" style="ellipse;whiteSpace=wrap;html=1;align=center;" parent="1" vertex="1">
          <mxGeometry x="150" y="560" width="140" height="40" as="geometry" />
        </mxCell>
        <mxCell id="ZZzzd-XF2jwjXJ92meH7-10" style="edgeStyle=orthogonalEdgeStyle;rounded=0;orthogonalLoop=1;jettySize=auto;html=1;entryX=0.25;entryY=1;entryDx=0;entryDy=0;endArrow=none;endFill=0;" parent="1" source="ZZzzd-XF2jwjXJ92meH7-14" target="ZZzzd-XF2jwjXJ92meH7-4" edge="1">
          <mxGeometry relative="1" as="geometry" />
        </mxCell>
        <mxCell id="ZZzzd-XF2jwjXJ92meH7-11" value="" style="edgeStyle=orthogonalEdgeStyle;rounded=0;orthogonalLoop=1;jettySize=auto;html=1;endArrow=none;endFill=0;" parent="1" source="ZZzzd-XF2jwjXJ92meH7-14" edge="1">
          <mxGeometry relative="1" as="geometry">
            <mxPoint x="100" y="879.9999999999998" as="targetPoint" />
          </mxGeometry>
        </mxCell>
        <mxCell id="ZZzzd-XF2jwjXJ92meH7-12" value="" style="edgeStyle=orthogonalEdgeStyle;rounded=0;orthogonalLoop=1;jettySize=auto;html=1;exitX=0;exitY=1;exitDx=0;exitDy=0;endArrow=none;endFill=0;" parent="1" source="ZZzzd-XF2jwjXJ92meH7-14" target="ZZzzd-XF2jwjXJ92meH7-32" edge="1">
          <mxGeometry relative="1" as="geometry" />
        </mxCell>
        <mxCell id="ZZzzd-XF2jwjXJ92meH7-13" value="" style="edgeStyle=orthogonalEdgeStyle;rounded=0;orthogonalLoop=1;jettySize=auto;html=1;endArrow=none;endFill=0;" parent="1" source="ZZzzd-XF2jwjXJ92meH7-14" target="ZZzzd-XF2jwjXJ92meH7-33" edge="1">
          <mxGeometry relative="1" as="geometry" />
        </mxCell>
        <mxCell id="ZZzzd-XF2jwjXJ92meH7-14" value="name" style="ellipse;whiteSpace=wrap;html=1;align=center;" parent="1" vertex="1">
          <mxGeometry x="270" y="750" width="100" height="40" as="geometry" />
        </mxCell>
        <mxCell id="ZZzzd-XF2jwjXJ92meH7-15" style="edgeStyle=orthogonalEdgeStyle;rounded=0;orthogonalLoop=1;jettySize=auto;html=1;entryX=1;entryY=0.75;entryDx=0;entryDy=0;endArrow=none;endFill=0;" parent="1" source="ZZzzd-XF2jwjXJ92meH7-16" target="ZZzzd-XF2jwjXJ92meH7-4" edge="1">
          <mxGeometry relative="1" as="geometry" />
        </mxCell>
        <mxCell id="ZZzzd-XF2jwjXJ92meH7-16" value="membership_end" style="ellipse;whiteSpace=wrap;html=1;align=center;" parent="1" vertex="1">
          <mxGeometry x="590" y="620" width="120" height="40" as="geometry" />
        </mxCell>
        <mxCell id="ZZzzd-XF2jwjXJ92meH7-17" style="edgeStyle=orthogonalEdgeStyle;rounded=0;orthogonalLoop=1;jettySize=auto;html=1;entryX=0;entryY=0.75;entryDx=0;entryDy=0;endArrow=none;endFill=0;" parent="1" source="ZZzzd-XF2jwjXJ92meH7-18" target="ZZzzd-XF2jwjXJ92meH7-4" edge="1">
          <mxGeometry relative="1" as="geometry" />
        </mxCell>
        <mxCell id="ZZzzd-XF2jwjXJ92meH7-18" value="membership_start" style="ellipse;whiteSpace=wrap;html=1;align=center;" parent="1" vertex="1">
          <mxGeometry x="190" y="620" width="120" height="40" as="geometry" />
        </mxCell>
        <mxCell id="ZZzzd-XF2jwjXJ92meH7-19" style="edgeStyle=orthogonalEdgeStyle;rounded=0;orthogonalLoop=1;jettySize=auto;html=1;exitX=0;exitY=0.5;exitDx=0;exitDy=0;entryX=1;entryY=0.25;entryDx=0;entryDy=0;endArrow=none;endFill=0;" parent="1" source="ZZzzd-XF2jwjXJ92meH7-20" target="ZZzzd-XF2jwjXJ92meH7-4" edge="1">
          <mxGeometry relative="1" as="geometry" />
        </mxCell>
        <mxCell id="ZZzzd-XF2jwjXJ92meH7-20" value="loyalty_points" style="ellipse;whiteSpace=wrap;html=1;align=center;" parent="1" vertex="1">
          <mxGeometry x="610" y="560" width="120" height="40" as="geometry" />
        </mxCell>
        <mxCell id="ZZzzd-XF2jwjXJ92meH7-21" style="edgeStyle=orthogonalEdgeStyle;rounded=0;orthogonalLoop=1;jettySize=auto;html=1;entryX=0;entryY=1;entryDx=0;entryDy=0;endArrow=none;endFill=0;" parent="1" source="ZZzzd-XF2jwjXJ92meH7-22" target="ZZzzd-XF2jwjXJ92meH7-4" edge="1">
          <mxGeometry relative="1" as="geometry" />
        </mxCell>
        <mxCell id="ZZzzd-XF2jwjXJ92meH7-22" value="contact" style="ellipse;whiteSpace=wrap;html=1;align=center;" parent="1" vertex="1">
          <mxGeometry x="220" y="690" width="100" height="40" as="geometry" />
        </mxCell>
        <mxCell id="ZZzzd-XF2jwjXJ92meH7-23" style="edgeStyle=orthogonalEdgeStyle;rounded=0;orthogonalLoop=1;jettySize=auto;html=1;entryX=1;entryY=1;entryDx=0;entryDy=0;endArrow=none;endFill=0;" parent="1" source="ZZzzd-XF2jwjXJ92meH7-24" target="ZZzzd-XF2jwjXJ92meH7-4" edge="1">
          <mxGeometry relative="1" as="geometry" />
        </mxCell>
        <mxCell id="ZZzzd-XF2jwjXJ92meH7-24" value="membership_tier" style="ellipse;whiteSpace=wrap;html=1;align=center;" parent="1" vertex="1">
          <mxGeometry x="570" y="690" width="105" height="40" as="geometry" />
        </mxCell>
        <mxCell id="ZZzzd-XF2jwjXJ92meH7-25" value="" style="edgeStyle=orthogonalEdgeStyle;rounded=0;orthogonalLoop=1;jettySize=auto;html=1;endArrow=ERzeroToMany;endFill=0;startArrow=ERone;startFill=0;entryX=0.5;entryY=1;entryDx=0;entryDy=0;exitX=0.5;exitY=0;exitDx=0;exitDy=0;" parent="1" source="JkcQL4pgoWUEzBNEXGuM-16" target="JkcQL4pgoWUEzBNEXGuM-8" edge="1">
          <mxGeometry relative="1" as="geometry">
            <mxPoint x="990" y="380" as="sourcePoint" />
            <mxPoint x="990" y="320" as="targetPoint" />
          </mxGeometry>
        </mxCell>
        <mxCell id="ZZzzd-XF2jwjXJ92meH7-28" style="edgeStyle=orthogonalEdgeStyle;rounded=0;orthogonalLoop=1;jettySize=auto;html=1;entryX=0.5;entryY=1;entryDx=0;entryDy=0;endArrow=ERzeroToMany;endFill=0;startArrow=ERone;startFill=0;" parent="1" source="ZZzzd-XF2jwjXJ92meH7-34" target="ZZzzd-XF2jwjXJ92meH7-29" edge="1">
          <mxGeometry relative="1" as="geometry">
            <mxPoint x="330" y="380" as="sourcePoint" />
          </mxGeometry>
        </mxCell>
        <mxCell id="ZZzzd-XF2jwjXJ92meH7-29" value="Review" style="whiteSpace=wrap;html=1;rounded=1;arcSize=10;" parent="1" vertex="1">
          <mxGeometry x="190" y="250" width="120" height="60" as="geometry" />
        </mxCell>
        <mxCell id="ZZzzd-XF2jwjXJ92meH7-30" value="&lt;span style=&quot;border-bottom: 1px dotted&quot;&gt;email&lt;/span&gt;" style="ellipse;whiteSpace=wrap;html=1;align=center;" parent="1" vertex="1">
          <mxGeometry x="530" y="750" width="100" height="40" as="geometry" />
        </mxCell>
        <mxCell id="ZZzzd-XF2jwjXJ92meH7-31" value="first_name" style="ellipse;whiteSpace=wrap;html=1;align=center;" parent="1" vertex="1">
          <mxGeometry x="40" y="670" width="100" height="40" as="geometry" />
        </mxCell>
        <mxCell id="ZZzzd-XF2jwjXJ92meH7-32" value="middle_name" style="ellipse;whiteSpace=wrap;html=1;align=center;" parent="1" vertex="1">
          <mxGeometry x="160" y="880" width="100" height="40" as="geometry" />
        </mxCell>
        <mxCell id="ZZzzd-XF2jwjXJ92meH7-33" value="last_name" style="ellipse;whiteSpace=wrap;html=1;align=center;" parent="1" vertex="1">
          <mxGeometry x="270" y="880" width="100" height="40" as="geometry" />
        </mxCell>
        <mxCell id="ZZzzd-XF2jwjXJ92meH7-34" value="Creates/Writes" style="shape=rhombus;double=1;perimeter=rhombusPerimeter;whiteSpace=wrap;html=1;align=center;" parent="1" vertex="1">
          <mxGeometry x="190" y="390" width="120" height="60" as="geometry" />
        </mxCell>
        <mxCell id="ZZzzd-XF2jwjXJ92meH7-36" value="Owns" style="rhombus;whiteSpace=wrap;html=1;rounded=1;arcSize=10;" parent="1" vertex="1">
          <mxGeometry x="410" y="140" width="80" height="80" as="geometry" />
        </mxCell>
        <mxCell id="JkcQL4pgoWUEzBNEXGuM-4" value="type" style="ellipse;whiteSpace=wrap;html=1;align=center;" parent="1" vertex="1">
          <mxGeometry x="760" y="110" width="100" height="40" as="geometry" />
        </mxCell>
        <mxCell id="JkcQL4pgoWUEzBNEXGuM-6" value="status" style="ellipse;whiteSpace=wrap;html=1;align=center;" parent="1" vertex="1">
          <mxGeometry x="760" y="240" width="100" height="40" as="geometry" />
        </mxCell>
        <mxCell id="JkcQL4pgoWUEzBNEXGuM-8" value="Session" style="whiteSpace=wrap;html=1;align=center;" parent="1" vertex="1">
          <mxGeometry x="940" y="170" width="100" height="40" as="geometry" />
        </mxCell>
        <mxCell id="JkcQL4pgoWUEzBNEXGuM-10" value="holes" style="ellipse;whiteSpace=wrap;html=1;align=center;" parent="1" vertex="1">
          <mxGeometry x="1120" y="110" width="100" height="40" as="geometry" />
        </mxCell>
        <mxCell id="JkcQL4pgoWUEzBNEXGuM-12" value="schedule" style="ellipse;whiteSpace=wrap;html=1;align=center;" parent="1" vertex="1">
          <mxGeometry x="1170" y="170" width="100" height="40" as="geometry" />
        </mxCell>
        <mxCell id="JkcQL4pgoWUEzBNEXGuM-14" value="price" style="ellipse;whiteSpace=wrap;html=1;align=center;dashed=1;" parent="1" vertex="1">
          <mxGeometry x="1020" y="60" width="100" height="40" as="geometry" />
        </mxCell>
        <mxCell id="JkcQL4pgoWUEzBNEXGuM-16" value="Books" style="shape=rhombus;perimeter=rhombusPerimeter;whiteSpace=wrap;html=1;align=center;" parent="1" vertex="1">
          <mxGeometry x="930" y="400" width="120" height="60" as="geometry" />
        </mxCell>
        <mxCell id="JkcQL4pgoWUEzBNEXGuM-18" value="people_quantity" style="ellipse;whiteSpace=wrap;html=1;align=center;" parent="1" vertex="1">
          <mxGeometry x="1120" y="240" width="100" height="40" as="geometry" />
        </mxCell>
        <mxCell id="JkcQL4pgoWUEzBNEXGuM-25" value="&lt;span style=&quot;border-bottom: 1px dotted&quot;&gt;user_id&lt;/span&gt;" style="ellipse;whiteSpace=wrap;html=1;align=center;" parent="1" vertex="1">
          <mxGeometry x="1020" y="290" width="100" height="40" as="geometry" />
        </mxCell>
        <mxCell id="JkcQL4pgoWUEzBNEXGuM-26" value="&lt;span style=&quot;border-bottom: 1px dotted&quot;&gt;staff_id&lt;/span&gt;" style="ellipse;whiteSpace=wrap;html=1;align=center;" parent="1" vertex="1">
          <mxGeometry x="860" y="290" width="100" height="40" as="geometry" />
        </mxCell>
        <mxCell id="JkcQL4pgoWUEzBNEXGuM-27" value="&lt;u&gt;session_id&lt;/u&gt;" style="ellipse;whiteSpace=wrap;html=1;align=center;" parent="1" vertex="1">
          <mxGeometry x="860" y="60" width="100" height="40" as="geometry" />
        </mxCell>
        <mxCell id="JkcQL4pgoWUEzBNEXGuM-29" value="buckets" style="ellipse;whiteSpace=wrap;html=1;align=center;" parent="1" vertex="1">
          <mxGeometry x="710" y="170" width="100" height="40" as="geometry" />
        </mxCell>
        <mxCell id="JkcQL4pgoWUEzBNEXGuM-30" value="" style="endArrow=none;html=1;rounded=0;exitX=0.75;exitY=0;exitDx=0;exitDy=0;entryX=0.5;entryY=1;entryDx=0;entryDy=0;" parent="1" source="JkcQL4pgoWUEzBNEXGuM-8" target="JkcQL4pgoWUEzBNEXGuM-14" edge="1">
          <mxGeometry width="50" height="50" relative="1" as="geometry">
            <mxPoint x="1040" y="155" as="sourcePoint" />
            <mxPoint x="1090" y="105" as="targetPoint" />
          </mxGeometry>
        </mxCell>
        <mxCell id="JkcQL4pgoWUEzBNEXGuM-31" value="" style="endArrow=none;html=1;rounded=0;exitX=1;exitY=0;exitDx=0;exitDy=0;entryX=0;entryY=0.5;entryDx=0;entryDy=0;" parent="1" source="JkcQL4pgoWUEzBNEXGuM-8" target="JkcQL4pgoWUEzBNEXGuM-10" edge="1">
          <mxGeometry width="50" height="50" relative="1" as="geometry">
            <mxPoint x="1060" y="220" as="sourcePoint" />
            <mxPoint x="1105" y="150" as="targetPoint" />
          </mxGeometry>
        </mxCell>
        <mxCell id="JkcQL4pgoWUEzBNEXGuM-32" value="" style="endArrow=none;html=1;rounded=0;exitX=1;exitY=0.5;exitDx=0;exitDy=0;entryX=0;entryY=0.5;entryDx=0;entryDy=0;" parent="1" source="JkcQL4pgoWUEzBNEXGuM-8" target="JkcQL4pgoWUEzBNEXGuM-12" edge="1">
          <mxGeometry width="50" height="50" relative="1" as="geometry">
            <mxPoint x="1070" y="230" as="sourcePoint" />
            <mxPoint x="1140" y="190" as="targetPoint" />
          </mxGeometry>
        </mxCell>
        <mxCell id="JkcQL4pgoWUEzBNEXGuM-33" value="" style="endArrow=none;html=1;rounded=0;exitX=1;exitY=1;exitDx=0;exitDy=0;entryX=0;entryY=0;entryDx=0;entryDy=0;" parent="1" source="JkcQL4pgoWUEzBNEXGuM-8" target="JkcQL4pgoWUEzBNEXGuM-18" edge="1">
          <mxGeometry width="50" height="50" relative="1" as="geometry">
            <mxPoint x="1050" y="210" as="sourcePoint" />
            <mxPoint x="1170" y="210" as="targetPoint" />
          </mxGeometry>
        </mxCell>
        <mxCell id="JkcQL4pgoWUEzBNEXGuM-34" value="" style="endArrow=none;html=1;rounded=0;exitX=0.75;exitY=1;exitDx=0;exitDy=0;entryX=0.5;entryY=0;entryDx=0;entryDy=0;" parent="1" source="JkcQL4pgoWUEzBNEXGuM-8" target="JkcQL4pgoWUEzBNEXGuM-25" edge="1">
          <mxGeometry width="50" height="50" relative="1" as="geometry">
            <mxPoint x="1030" y="230" as="sourcePoint" />
            <mxPoint x="1115" y="266" as="targetPoint" />
          </mxGeometry>
        </mxCell>
        <mxCell id="JkcQL4pgoWUEzBNEXGuM-35" value="" style="endArrow=none;html=1;rounded=0;exitX=0.25;exitY=1;exitDx=0;exitDy=0;entryX=0.5;entryY=0;entryDx=0;entryDy=0;" parent="1" source="JkcQL4pgoWUEzBNEXGuM-8" target="JkcQL4pgoWUEzBNEXGuM-26" edge="1">
          <mxGeometry width="50" height="50" relative="1" as="geometry">
            <mxPoint x="960" y="250" as="sourcePoint" />
            <mxPoint x="1005" y="330" as="targetPoint" />
          </mxGeometry>
        </mxCell>
        <mxCell id="JkcQL4pgoWUEzBNEXGuM-36" value="" style="endArrow=none;html=1;rounded=0;exitX=0;exitY=1;exitDx=0;exitDy=0;entryX=1;entryY=0;entryDx=0;entryDy=0;" parent="1" source="JkcQL4pgoWUEzBNEXGuM-8" target="JkcQL4pgoWUEzBNEXGuM-6" edge="1">
          <mxGeometry width="50" height="50" relative="1" as="geometry">
            <mxPoint x="985" y="230" as="sourcePoint" />
            <mxPoint x="930" y="310" as="targetPoint" />
          </mxGeometry>
        </mxCell>
        <mxCell id="JkcQL4pgoWUEzBNEXGuM-37" value="" style="endArrow=none;html=1;rounded=0;exitX=0;exitY=0.5;exitDx=0;exitDy=0;entryX=1;entryY=0.5;entryDx=0;entryDy=0;" parent="1" source="JkcQL4pgoWUEzBNEXGuM-8" target="JkcQL4pgoWUEzBNEXGuM-29" edge="1">
          <mxGeometry width="50" height="50" relative="1" as="geometry">
            <mxPoint x="1035" y="210" as="sourcePoint" />
            <mxPoint x="940" y="246" as="targetPoint" />
          </mxGeometry>
        </mxCell>
        <mxCell id="JkcQL4pgoWUEzBNEXGuM-38" value="" style="endArrow=none;html=1;rounded=0;exitX=0;exitY=0;exitDx=0;exitDy=0;entryX=1;entryY=0.5;entryDx=0;entryDy=0;" parent="1" source="JkcQL4pgoWUEzBNEXGuM-8" target="JkcQL4pgoWUEzBNEXGuM-4" edge="1">
          <mxGeometry width="50" height="50" relative="1" as="geometry">
            <mxPoint x="1050" y="170" as="sourcePoint" />
            <mxPoint x="920" y="170" as="targetPoint" />
          </mxGeometry>
        </mxCell>
        <mxCell id="JkcQL4pgoWUEzBNEXGuM-39" value="" style="endArrow=none;html=1;rounded=0;exitX=0.25;exitY=0;exitDx=0;exitDy=0;entryX=0.5;entryY=1;entryDx=0;entryDy=0;" parent="1" source="JkcQL4pgoWUEzBNEXGuM-8" target="JkcQL4pgoWUEzBNEXGuM-27" edge="1">
          <mxGeometry width="50" height="50" relative="1" as="geometry">
            <mxPoint x="1030" y="180" as="sourcePoint" />
            <mxPoint x="950" y="140" as="targetPoint" />
          </mxGeometry>
        </mxCell>
        <mxCell id="QNY_iXkkLxrl9m6pQ7GA-52" value="Cart" style="rounded=1;arcSize=10;whiteSpace=wrap;html=1;align=center;" vertex="1" parent="1">
          <mxGeometry x="400" y="-170" width="100" height="40" as="geometry" />
        </mxCell>
        <mxCell id="QNY_iXkkLxrl9m6pQ7GA-53" value="item_id" style="ellipse;whiteSpace=wrap;html=1;align=center;fontStyle=4;" vertex="1" parent="1">
          <mxGeometry x="830" y="-270" width="100" height="40" as="geometry" />
        </mxCell>
        <mxCell id="QNY_iXkkLxrl9m6pQ7GA-54" value="" style="endArrow=none;html=1;rounded=0;entryX=0.5;entryY=0;entryDx=0;entryDy=0;" edge="1" parent="1">
          <mxGeometry relative="1" as="geometry">
            <mxPoint x="880" y="-230" as="sourcePoint" />
            <mxPoint x="880" y="-160" as="targetPoint" />
          </mxGeometry>
        </mxCell>
        <mxCell id="QNY_iXkkLxrl9m6pQ7GA-55" value="name" style="ellipse;whiteSpace=wrap;html=1;align=center;" vertex="1" parent="1">
          <mxGeometry x="980" y="-220" width="100" height="40" as="geometry" />
        </mxCell>
        <mxCell id="QNY_iXkkLxrl9m6pQ7GA-56" value="type" style="ellipse;whiteSpace=wrap;html=1;align=center;" vertex="1" parent="1">
          <mxGeometry x="990" y="-160" width="100" height="40" as="geometry" />
        </mxCell>
        <mxCell id="QNY_iXkkLxrl9m6pQ7GA-57" value="quantity" style="ellipse;whiteSpace=wrap;html=1;align=center;" vertex="1" parent="1">
          <mxGeometry x="990" y="-100" width="100" height="40" as="geometry" />
        </mxCell>
        <mxCell id="QNY_iXkkLxrl9m6pQ7GA-58" value="quantity" style="ellipse;whiteSpace=wrap;html=1;align=center;" vertex="1" parent="1">
          <mxGeometry x="960" y="-50" width="100" height="40" as="geometry" />
        </mxCell>
        <mxCell id="QNY_iXkkLxrl9m6pQ7GA-59" value="price" style="ellipse;whiteSpace=wrap;html=1;align=center;" vertex="1" parent="1">
          <mxGeometry x="830" y="-40" width="100" height="40" as="geometry" />
        </mxCell>
        <mxCell id="QNY_iXkkLxrl9m6pQ7GA-60" value="&lt;span style=&quot;border-bottom: 1px dotted&quot;&gt;cart_id&lt;/span&gt;" style="ellipse;whiteSpace=wrap;html=1;align=center;" vertex="1" parent="1">
          <mxGeometry x="940" y="-260" width="100" height="40" as="geometry" />
        </mxCell>
        <mxCell id="QNY_iXkkLxrl9m6pQ7GA-61" value="" style="endArrow=none;html=1;rounded=0;exitX=0;exitY=1;exitDx=0;exitDy=0;entryX=1;entryY=0;entryDx=0;entryDy=0;" edge="1" parent="1" source="QNY_iXkkLxrl9m6pQ7GA-55">
          <mxGeometry relative="1" as="geometry">
            <mxPoint x="940" y="-200" as="sourcePoint" />
            <mxPoint x="930" y="-160" as="targetPoint" />
          </mxGeometry>
        </mxCell>
        <mxCell id="QNY_iXkkLxrl9m6pQ7GA-62" value="" style="endArrow=none;html=1;rounded=0;exitX=0;exitY=0.5;exitDx=0;exitDy=0;entryX=1;entryY=0.5;entryDx=0;entryDy=0;" edge="1" parent="1" source="QNY_iXkkLxrl9m6pQ7GA-56">
          <mxGeometry relative="1" as="geometry">
            <mxPoint x="980" y="-150" as="sourcePoint" />
            <mxPoint x="930" y="-140" as="targetPoint" />
          </mxGeometry>
        </mxCell>
        <mxCell id="QNY_iXkkLxrl9m6pQ7GA-63" value="" style="endArrow=none;html=1;rounded=0;exitX=0;exitY=0.5;exitDx=0;exitDy=0;entryX=1;entryY=1;entryDx=0;entryDy=0;" edge="1" parent="1" source="QNY_iXkkLxrl9m6pQ7GA-57">
          <mxGeometry relative="1" as="geometry">
            <mxPoint x="990" y="-80" as="sourcePoint" />
            <mxPoint x="930" y="-120" as="targetPoint" />
          </mxGeometry>
        </mxCell>
        <mxCell id="QNY_iXkkLxrl9m6pQ7GA-64" value="" style="endArrow=none;html=1;rounded=0;exitX=0.84;exitY=1.011;exitDx=0;exitDy=0;entryX=0;entryY=0;entryDx=0;entryDy=0;exitPerimeter=0;" edge="1" parent="1" target="QNY_iXkkLxrl9m6pQ7GA-58">
          <mxGeometry relative="1" as="geometry">
            <mxPoint x="914" y="-119.56000000000006" as="sourcePoint" />
            <mxPoint x="930" y="10" as="targetPoint" />
          </mxGeometry>
        </mxCell>
        <mxCell id="QNY_iXkkLxrl9m6pQ7GA-65" value="" style="endArrow=none;html=1;rounded=0;exitX=0.5;exitY=1;exitDx=0;exitDy=0;entryX=0.5;entryY=0;entryDx=0;entryDy=0;" edge="1" parent="1" target="QNY_iXkkLxrl9m6pQ7GA-59">
          <mxGeometry relative="1" as="geometry">
            <mxPoint x="880" y="-120" as="sourcePoint" />
            <mxPoint x="800" y="-50" as="targetPoint" />
          </mxGeometry>
        </mxCell>
        <mxCell id="QNY_iXkkLxrl9m6pQ7GA-66" value="" style="endArrow=none;html=1;rounded=0;exitX=0;exitY=1;exitDx=0;exitDy=0;entryX=0.851;entryY=-0.004;entryDx=0;entryDy=0;entryPerimeter=0;" edge="1" parent="1" source="QNY_iXkkLxrl9m6pQ7GA-60">
          <mxGeometry relative="1" as="geometry">
            <mxPoint x="900" y="-180" as="sourcePoint" />
            <mxPoint x="915.0999999999999" y="-160.15999999999997" as="targetPoint" />
          </mxGeometry>
        </mxCell>
        <mxCell id="QNY_iXkkLxrl9m6pQ7GA-67" value="cart_id" style="ellipse;whiteSpace=wrap;html=1;align=center;fontStyle=4;" vertex="1" parent="1">
          <mxGeometry x="520" y="-230" width="100" height="40" as="geometry" />
        </mxCell>
        <mxCell id="QNY_iXkkLxrl9m6pQ7GA-68" value="total_price" style="ellipse;whiteSpace=wrap;html=1;align=center;dashed=1;" vertex="1" parent="1">
          <mxGeometry x="270" y="-230" width="100" height="40" as="geometry" />
        </mxCell>
        <mxCell id="QNY_iXkkLxrl9m6pQ7GA-69" value="&lt;span style=&quot;border-bottom: 1px dotted&quot;&gt;user_id&lt;/span&gt;" style="ellipse;whiteSpace=wrap;html=1;align=center;" vertex="1" parent="1">
          <mxGeometry x="400" y="-240" width="100" height="40" as="geometry" />
        </mxCell>
        <mxCell id="QNY_iXkkLxrl9m6pQ7GA-70" value="" style="endArrow=none;html=1;rounded=0;exitX=0.5;exitY=1;exitDx=0;exitDy=0;entryX=1;entryY=0;entryDx=0;entryDy=0;" edge="1" parent="1" source="QNY_iXkkLxrl9m6pQ7GA-67" target="QNY_iXkkLxrl9m6pQ7GA-52">
          <mxGeometry relative="1" as="geometry">
            <mxPoint x="470" y="-180" as="sourcePoint" />
            <mxPoint x="570" y="-180" as="targetPoint" />
          </mxGeometry>
        </mxCell>
        <mxCell id="QNY_iXkkLxrl9m6pQ7GA-71" value="" style="endArrow=none;html=1;rounded=0;exitX=0.5;exitY=1;exitDx=0;exitDy=0;entryX=0.5;entryY=0;entryDx=0;entryDy=0;" edge="1" parent="1" source="QNY_iXkkLxrl9m6pQ7GA-69" target="QNY_iXkkLxrl9m6pQ7GA-52">
          <mxGeometry relative="1" as="geometry">
            <mxPoint x="380" y="-180" as="sourcePoint" />
            <mxPoint x="480" y="-180" as="targetPoint" />
          </mxGeometry>
        </mxCell>
        <mxCell id="QNY_iXkkLxrl9m6pQ7GA-72" value="" style="endArrow=none;html=1;rounded=0;exitX=0;exitY=0;exitDx=0;exitDy=0;" edge="1" parent="1" source="QNY_iXkkLxrl9m6pQ7GA-52" target="QNY_iXkkLxrl9m6pQ7GA-68">
          <mxGeometry relative="1" as="geometry">
            <mxPoint x="390" y="-80" as="sourcePoint" />
            <mxPoint x="490" y="-80" as="targetPoint" />
          </mxGeometry>
        </mxCell>
        <mxCell id="QNY_iXkkLxrl9m6pQ7GA-73" value="items" style="rounded=1;arcSize=10;whiteSpace=wrap;html=1;align=center;" vertex="1" parent="1">
          <mxGeometry x="830" y="-160" width="100" height="40" as="geometry" />
        </mxCell>
        <mxCell id="QNY_iXkkLxrl9m6pQ7GA-75" value="Holds" style="shape=rhombus;perimeter=rhombusPerimeter;whiteSpace=wrap;html=1;align=center;" vertex="1" parent="1">
          <mxGeometry x="610" y="-170" width="120" height="60" as="geometry" />
        </mxCell>
        <mxCell id="QNY_iXkkLxrl9m6pQ7GA-76" value="" style="fontSize=12;html=1;endArrow=ERzeroToMany;endFill=1;rounded=0;exitX=1;exitY=0.5;exitDx=0;exitDy=0;entryX=0;entryY=0.5;entryDx=0;entryDy=0;" edge="1" parent="1" source="QNY_iXkkLxrl9m6pQ7GA-75" target="QNY_iXkkLxrl9m6pQ7GA-73">
          <mxGeometry width="100" height="100" relative="1" as="geometry">
            <mxPoint x="720" y="-10" as="sourcePoint" />
            <mxPoint x="820" y="-110" as="targetPoint" />
          </mxGeometry>
        </mxCell>
        <mxCell id="QNY_iXkkLxrl9m6pQ7GA-77" value="" style="fontSize=12;html=1;endArrow=ERmandOne;rounded=0;exitX=0.5;exitY=0;exitDx=0;exitDy=0;entryX=0.5;entryY=1;entryDx=0;entryDy=0;" edge="1" parent="1" source="ZZzzd-XF2jwjXJ92meH7-36" target="QNY_iXkkLxrl9m6pQ7GA-52">
          <mxGeometry width="100" height="100" relative="1" as="geometry">
            <mxPoint x="430" y="330" as="sourcePoint" />
            <mxPoint x="530" y="230" as="targetPoint" />
          </mxGeometry>
        </mxCell>
        <mxCell id="QNY_iXkkLxrl9m6pQ7GA-80" value="" style="edgeStyle=entityRelationEdgeStyle;fontSize=12;html=1;endArrow=ERmandOne;startArrow=ERmandOne;rounded=0;exitX=1;exitY=0.75;exitDx=0;exitDy=0;entryX=0;entryY=0.5;entryDx=0;entryDy=0;" edge="1" parent="1" source="QNY_iXkkLxrl9m6pQ7GA-52" target="QNY_iXkkLxrl9m6pQ7GA-75">
          <mxGeometry width="100" height="100" relative="1" as="geometry">
            <mxPoint x="500" y="-10" as="sourcePoint" />
            <mxPoint x="600" y="-110" as="targetPoint" />
          </mxGeometry>
        </mxCell>
      </root>
    </mxGraphModel>
  </diagram>
</mxfile>
